<?xml version="1.0" encoding="utf-8"?>
<!-- Generator: Adobe Illustrator 16.0.3, SVG Export Plug-In . SVG Version: 6.00 Build 0)  -->
<!DOCTYPE svg PUBLIC "-//W3C//DTD SVG 1.1//EN" "http://www.w3.org/Graphics/SVG/1.1/DTD/svg11.dtd">
<svg version="1.1" id="圖層_1" xmlns="http://www.w3.org/2000/svg" xmlns:xlink="http://www.w3.org/1999/xlink" x="0px" y="0px"
	 width="140.997px" height="135.42px" viewBox="0 0 140.997 135.42" enable-background="new 0 0 140.997 135.42"
	 xml:space="preserve">
<path opacity="0.51" fill="#EAC080" d="M20.04,108.171c0,0-38.752-18.406-8.478-59C10.25,37.098,20.815,6.604,55.056,14.183
	c17.183-22.934,52.595-15.505,55.63,4.183c24.415-2.724,37.233,37.41,26.469,50.794c1.143,17.968,3.54,43.119-33.511,55.97
	c-37.056,12.847-60.265,12.342-65.298,5.703C29.85,125.538,24.419,116.29,20.04,108.171z"/>
<ellipse transform="matrix(-0.9322 0.3618 -0.3618 -0.9322 86.0877 135.0257)" fill="#F0C3D7" cx="30.401" cy="75.573" rx="8.297" ry="12.551"/>
<path fill="#F0C3D7" d="M36.92,49.454c-2.916-7.511-1.016-15.257,4.246-17.299c5.262-2.041,11.89,2.393,14.803,9.904
	c2.919,7.511,1.017,15.255-4.245,17.298C46.464,61.399,39.836,56.965,36.92,49.454z"/>
<ellipse transform="matrix(0.9764 -0.2158 0.2158 0.9764 -5.9693 18.6687)" fill="#F0C3D7" cx="82.504" cy="36.669" rx="9.44" ry="12.873"/>
<path fill="#F0C3D7" d="M123.721,51.863c0.133,7.274-3.732,13.243-8.628,13.331c-4.9,0.089-8.975-5.738-9.106-13.012
	c-0.132-7.274,3.732-13.245,8.63-13.333C119.513,38.761,123.587,44.586,123.721,51.863z"/>
<path fill="#F0C3D7" d="M84.651,107.028c32.982,5.918,47.016-25.92-13.541-45.99C27.146,114.619,61.733,134.949,84.651,107.028z"/>
</svg>
